# xmcd
#
# Track frame offsets:
#	150
#	16440
#	38268
#	61687
#	77455
#	91615
#	115117
#	133960
#	157728
#	176248
#	192731
#	206646
#	229927
#	246427
#	261371
#	275741
#	292566
#	310119
#	325891
#	342402
#
# Disc length: 4769 seconds
# Revision: 0
# Processed by: cddbd v1.5.2PL0 Copyright (c) Steve Scherf et al.
# Submitted via: dBpowerAMP V12.0
#
DISCID=16129f14
DTITLE=Various Artist - Gnadenlos Sommer Folge7 CD1
DYEAR=2004
DGENRE=Discofox
TTITLE0=Michael Birkenfeld - Verrückt nach dir
TTITLE1=Oliver Frank - Alles OK! (Remix)
TTITLE2=Daniel Beck - Lass uns fliegen (Maxi Version)
TTITLE3=Oliver Lukas - Ich habe die ganze Nacht von dir geträumt
TTITLE4=Francesco Napoli - Lady Fantasy
TTITLE5=Guido Hoffmann - Eine kleine grosse Liebe (Maxi Version)
TTITLE6=Joyo - Please don't cry (Maxi Dance)
TTITLE7=Jeannine - Samba de Luna (Maxi Version)
TTITLE8=Ralf Andre - Per Ce No (Maxi Version)
TTITLE9=Michael Morgan - Engel lässt man niemals gehen (Disco Version)
TTITLE10=Modern Talking feat. Eric Singleton - Sexy Sexy Lover (Rap Version)
TTITLE11=Nico Gemba - Hokus Pokus (Zauberstab Mix)
TTITLE12=Michael Wendler - Dich tausch ich um (Single Version)
TTITLE13=Tommy Fischer - Where are you
TTITLE14=Leo König - Auf die Liebe
TTITLE15=Oliver Frank - Zeit mit dir
TTITLE16=Francesco Napoli - Stella
TTITLE17=Marc Hendric - SOS an Bord
TTITLE18=Matthias Carras - Ich surf' auf Wolke 7
TTITLE19=Michael Larsen - Ach wie gut dass niemand weiss (Radio Version)
EXTD=
EXTT0=
EXTT1=
EXTT2=
EXTT3=
EXTT4=
EXTT5=
EXTT6=
EXTT7=
EXTT8=
EXTT9=
EXTT10=
EXTT11=
EXTT12=
EXTT13=
EXTT14=
EXTT15=
EXTT16=
EXTT17=
EXTT18=
EXTT19=
PLAYORDER=
